<?xml version="1.0" encoding="utf-8"?>
<!-- Generator: Adobe Illustrator 21.0.0, SVG Export Plug-In . SVG Version: 6.00 Build 0)  -->
<svg version="1.1" xmlns="http://www.w3.org/2000/svg" xmlns:xlink="http://www.w3.org/1999/xlink" x="0px" y="0px"
	 viewBox="0 0 221.6 46.9" style="enable-background:new 0 0 221.6 46.9;" xml:space="preserve">
<style type="text/css">
	.st0{display:none;}
	.st1{display:inline;fill:#9B7942;}
	.st2{fill:#FF491A;}
	.st3{fill:#FF0F03;}
	.st4{fill:#FF6F18;}
	.st5{fill:#FF8D1E;}
	.st6{fill:#FFC64B;}
</style>
<g id="Layer_1" class="st0">
	<path class="st1" d="M219.8,17.5c-4,0.7-7.9,2.1-11.8,3.4c-3.9,1.3-7.8,2.6-11.6,4.1c-1.2,0.5-2.1,1.7-1.7,3.1
		c0.3,1.2,1.8,2.2,3.1,1.7c4-1.4,7.9-3.1,11.8-4.8c3.7-1.7,7.7-3.4,11.1-5.7C221.5,18.6,220.9,17.3,219.8,17.5 M210.9,13.4
		c-2.7,1.2-5.5,2.5-8.2,3.7s-5.5,2.4-8.1,4c-1.5,0.9-0.8,3.5,1,3c3-0.9,5.8-2.1,8.7-3.2c2.9-1.2,5.7-2.3,8.6-3.5
		C215.5,16.3,213.5,12.2,210.9,13.4 M208.3,9.6c-6,2.7-12,5.4-18.1,8c-1.1,0.5-1.3,2-0.8,2.9c0.6,1.1,1.9,1.2,2.9,0.8
		c6-2.8,11.7-5.9,17.2-9.6C210.8,10.8,209.7,8.9,208.3,9.6 M209.5,4.4c-0.7-1.2-2.2-1.5-3.4-0.9c-8.4,4.1-16.7,8.7-24.3,14.1
		c-1.5,1-0.2,3,1.4,2.4c4.3-1.9,8.6-3.9,12.8-6c4.2-2.1,8.5-4.1,12.7-6.2C209.8,7.2,210.1,5.5,209.5,4.4 M198.4,4.2
		c-0.6-1-1.9-1.3-2.9-0.8c-2.9,1.5-5.8,3-8.6,4.7c-2.8,1.7-5.5,3.6-8.2,5.4c-1.6,1.1-0.1,3.7,1.6,2.7c2.7-1.8,5.7-3.3,8.6-4.8
		c2.9-1.5,5.9-3,8.9-4.3C198.7,6.7,198.9,5.1,198.4,4.2 M194.6,1.7c0.2-0.5,0.1-0.9-0.5-1.1c-1.1-0.4-2.2,0.2-3.2,0.5
		c-1.2,0.4-2.3,0.9-3.5,1.4c-2.3,1-4.6,2-6.8,3.2c-2.1,1.1-0.3,4.2,1.9,3.2c2.2-1.1,4.3-2.3,6.4-3.4c1-0.5,2.1-1.1,3.1-1.7
		C193,3.2,194.2,2.7,194.6,1.7 M155.6,26.8v-1.8c0-0.1-0.1-0.2-0.2-0.2h-9.6c-0.1,0-0.2,0.1-0.2,0.2v1.8c0,0.1,0.1,0.2,0.2,0.2h9.6
		C155.5,27,155.6,26.9,155.6,26.8 M155.6,22v-1.8c0-0.1-0.1-0.2-0.2-0.2h-9.6c-0.1,0-0.2,0.1-0.2,0.2V22c0,0.1,0.1,0.2,0.2,0.2h9.6
		C155.5,22.3,155.6,22.2,155.6,22 M119.6,25.5c2.3-2.8,4.7-6.8,3.1-10.5c-2.3-5.3-10.1-4-13.1,0c-3.1-4.2-11.3-5.2-13.2,0.5
		c-2.6,7.7,8.1,14.7,12.5,19.5c0.3,0.3,0.6,0.4,0.9,0.5c0.5,0.1,1,0,1.4-0.4C113.9,31.8,116.9,28.8,119.6,25.5 M120.1,19.2
		c-0.5,1.6-1.7,3.1-2.7,4.4c-2.3,2.7-4.9,5.3-7.4,7.9c-2.6-2.5-5.4-4.8-7.8-7.5c-2.1-2.3-6.5-8.6-0.5-10c3.1-0.7,5.4,1.7,7.2,3.7
		c0,0.1,0.1,0,0.2,0.1c0.1,0,0.1,0.1,0.2,0.1c0.1,0,0.2,0.1,0.3,0.1c0.2,0,0.3,0,0.4-0.1c0,0,0.1,0,0.1,0c0.1,0,0.1,0,0.2-0.1
		c1.7-1.9,3.5-3.8,6.4-3.8C119.2,14,120.8,17.1,120.1,19.2 M74.5,24.4v-1.8c0-0.1-0.1-0.2-0.2-0.2h-3.5c-0.1,0-0.1,0-0.1-0.1v-3.7
		c0-0.1-0.1-0.2-0.2-0.2h-1.8c-0.1,0-0.2,0.1-0.2,0.2v3.7c0,0.1,0,0.1-0.1,0.1h-3.5c-0.1,0-0.2,0.1-0.2,0.2v1.8
		c0,0.1,0.1,0.2,0.2,0.2h3.5c0.1,0,0.1,0,0.1,0.1v3.6c0,0.1,0.1,0.2,0.2,0.2h1.8c0.1,0,0.2-0.1,0.2-0.2v-3.6c0-0.1,0-0.1,0.1-0.1
		h3.5C74.4,24.6,74.5,24.5,74.5,24.4 M47.1,16.6c0.6-0.8-0.2-1.8-1.1-1.3c-3.2,1.6-6.2,3.8-9.2,5.9c-3,2.1-6,4.2-8.8,6.5
		c-0.9,0.7-1.4,2-0.7,3c0.6,1,2.1,1.4,3,0.7c3-2.2,6-4.6,8.8-7.1C41.8,21.9,44.8,19.5,47.1,16.6 M37.7,15.1
		c-2.5,0.8-5.1,1.7-7.6,2.5c-2.5,0.8-5.1,1.6-7.5,2.7c-1.4,0.6-1.1,3.1,0.6,2.8c2.7-0.5,5.3-1.3,8-2c2.6-0.8,5.3-1.5,7.9-2.3
		C41.5,18.1,40.1,14.3,37.7,15.1 M36.2,7.9c-0.4-1.2-1.6-1.7-2.8-1.3c-8,2.2-16,4.7-23.6,8.1c-1.4,0.6-0.7,2.6,0.8,2.3
		c4.1-0.9,8.1-2,12.2-3.1c4-1.1,8.1-2.1,12.1-3.2C36,10.4,36.5,9,36.2,7.9 M21.7,6.2c-0.5-0.9-1.7-1.1-2.6-0.7
		c-2.6,1.3-5.2,2.7-7.7,4.2c-2.5,1.5-4.8,3.2-7.3,4.8c-1.5,1-0.1,3.3,1.4,2.4c2.4-1.6,5.1-2.9,7.6-4.3c2.6-1.4,5.2-2.6,7.9-3.8
		C22,8.3,22.2,7,21.7,6.2 M14.6,6.7C14,5.8,12.9,5.6,12,5.2c-1-0.4-2.1-0.7-3.2-1C6.8,3.6,4.6,3,2.4,2.6C0.3,2.2-0.1,5.4,1.9,5.8
		C4,6.3,6.1,6.7,8.2,7.1c1,0.2,2.1,0.4,3.1,0.6c0.9,0.1,2.1,0.5,2.9,0C14.7,7.5,14.8,7.1,14.6,6.7 M13.8,22.6c0.6,0.9,1.7,1,2.6,0.6
		c5.2-2.7,10.1-5.7,14.9-9.1c1.1-0.8,0.1-2.5-1.2-1.8c-5.2,2.7-10.5,5.3-15.7,7.8C13.5,20.5,13.3,21.8,13.8,22.6 M18.2,22.9
		c-0.6,0.6-0.6,1.3-0.2,2c0.5,1.1,1.5,2.1,2.4,3c0.8,0.9,1.6,1.7,2.4,2.6c1.6,1.8,3.4,3.5,5.2,5.1c0.8,0.6,2-0.2,1.4-1.1
		c-1.3-2.1-2.8-4.2-4.3-6.1c-0.7-0.9-1.5-1.9-2.2-2.8c-0.8-1-1.6-2.2-2.7-2.9C19.6,22.2,18.7,22.4,18.2,22.9 M26.9,44.3
		c2.5,0.1,5.1-0.1,7.6-0.4c2-0.2,1.6-3.4-0.4-3c-2.4,0.4-4.8,0.5-7.2,0.9C25.5,41.9,25.4,44.3,26.9,44.3 M34.7,36.5
		c0.7-1,1.3-2,2-3.1c0.6-1,1.2-2,1.7-3c0.5-1,1.3-2.2,1-3.4c-0.1-0.5-0.7-0.8-1.2-0.7c-1.1,0.3-1.8,1.4-2.5,2.3
		c-0.7,0.9-1.4,1.8-2.1,2.7c-0.7,0.9-1.4,1.8-2.2,2.7c-0.8,1-1.7,1.9-2.3,3c-1.1,2.1,1.5,3.9,3.2,2.4C33.3,38.7,34,37.5,34.7,36.5
		 M197,32.2c-0.6,0.6-0.7,1.6-0.3,2.3c0.4,0.8,1.3,1,2.1,0.9c1.4-0.2,2.7-1.1,4-1.7c1.2-0.6,2.4-1.2,3.5-1.9
		c2.4-1.3,4.8-2.6,7.1-4.2c0.9-0.6,0.4-2.2-0.8-1.9c-2.7,0.7-5.3,1.8-7.9,2.9c-1.2,0.5-2.5,1-3.7,1.6
		C199.6,30.6,198.1,31.2,197,32.2 M200.8,40.7c1.4-0.3,2.7-1,4-1.6c1.2-0.6,2.5-1.2,3.7-1.9c1.2-0.6,2.3-1.3,3.4-2
		c1.1-0.7,2.5-1.4,2.9-2.7c0.2-0.6-0.2-1.2-0.8-1.3c-1.2-0.3-2.6,0.4-3.7,0.8c-1.2,0.5-2.4,1-3.6,1.4c-1.2,0.5-2.4,1-3.6,1.4
		c-1.3,0.5-2.8,0.9-4,1.7C196.8,38,198.3,41.2,200.8,40.7 M201,46.4c2.7-1,5.2-2.4,7.7-3.9c1.9-1.1,0.1-4.2-1.7-3
		c-2.3,1.5-4.7,2.7-7.1,4.1C198.5,44.5,199.4,47,201,46.4"/>
</g>
<g id="Layer_2">
	<path class="st2" d="M74.5,24.6c0.1,0,0.2-0.1,0.2-0.2v-1.8c0-0.1-0.1-0.2-0.2-0.2H71c-0.1,0-0.1,0-0.1-0.1v-3.6
		c0-0.1-0.1-0.2-0.2-0.2h-1.8c-0.1,0-0.2,0.1-0.2,0.2v3.6c0,0.1,0,0.1-0.1,0.1h-3.5c-0.1,0-0.2,0.1-0.2,0.2v1.8
		c0,0.1,0.1,0.2,0.2,0.2h3.5c0.1,0,0.1,0,0.1,0.1v3.6c0,0.1,0.1,0.2,0.2,0.2h1.8c0.1,0,0.2-0.1,0.2-0.2v-3.6c0-0.1,0-0.1,0.1-0.1
		H74.5z M120,19.3c-0.5,1.6-1.6,3.1-2.7,4.3c-2.3,2.7-4.9,5.3-7.4,7.9c-2.6-2.5-5.4-4.8-7.7-7.5c-2-2.3-6.5-8.6-0.5-9.9
		c3.1-0.7,5.4,1.7,7.2,3.7c0,0.1,0.1,0,0.2,0.1c0.1,0,0.1,0.1,0.2,0.1c0.1,0,0.2,0.1,0.3,0.1c0.1,0,0.3,0,0.4-0.1c0,0,0.1,0,0.1,0
		c0.1,0,0.1,0,0.2-0.1c1.7-1.9,3.5-3.8,6.4-3.8C119.2,14.1,120.7,17.1,120,19.3 M119.5,25.5c2.3-2.8,4.6-6.8,3.1-10.4
		c-2.2-5.2-10-4-13,0c-3-4.2-11.3-5.2-13.2,0.5c-2.6,7.6,8,14.6,12.4,19.3c0.3,0.3,0.6,0.4,0.9,0.5c0.5,0.1,1,0,1.4-0.4
		C113.9,31.8,116.9,28.7,119.5,25.5 M155.1,22.3c0.1,0,0.2-0.1,0.2-0.2v-1.8c0-0.1-0.1-0.2-0.2-0.2h-9.5c-0.1,0-0.2,0.1-0.2,0.2V22
		c0,0.1,0.1,0.2,0.2,0.2H155.1z M155.1,27c0.1,0,0.2-0.1,0.2-0.2v-1.8c0-0.1-0.1-0.2-0.2-0.2h-9.5c-0.1,0-0.2,0.1-0.2,0.2v1.8
		c0,0.1,0.1,0.2,0.2,0.2H155.1z"/>
	<path class="st3" d="M179.8,16.3c2.7-1.8,5.7-3.3,8.5-4.8c2.9-1.5,5.8-3,8.8-4.3c1-0.5,1.3-2,0.8-2.9c-0.6-1-1.9-1.3-2.9-0.8
		c-2.9,1.5-5.8,3-8.6,4.7c-2.8,1.7-5.4,3.6-8.2,5.4C176.6,14.7,178.1,17.4,179.8,16.3"/>
	<path class="st2" d="M182.7,19.9c4.3-1.8,8.5-3.9,12.7-6c4.2-2,8.4-4,12.6-6.1c1.2-0.6,1.5-2.3,0.9-3.4c-0.7-1.2-2.2-1.5-3.4-0.9
		c-8.3,4.1-16.6,8.6-24.2,14C179.9,18.6,181.1,20.6,182.7,19.9"/>
	<path class="st2" d="M207.6,9.7c-6,2.7-12,5.4-18,8c-1,0.4-1.3,2-0.8,2.9c0.6,1.1,1.8,1.2,2.9,0.8c6-2.7,11.6-5.9,17.1-9.5
		C210.2,10.9,209.1,9,207.6,9.7"/>
	<path class="st4" d="M195,24.1c3-0.8,5.8-2.1,8.6-3.2c2.8-1.2,5.7-2.3,8.5-3.5c2.6-1.1,0.6-5.2-2-4c-2.7,1.2-5.5,2.5-8.2,3.7
		c-2.7,1.2-5.5,2.4-8.1,3.9C192.5,21.9,193.2,24.6,195,24.1"/>
	<path class="st4" d="M219.2,17.5c-4,0.7-7.9,2.1-11.7,3.4c-3.9,1.3-7.7,2.6-11.5,4.1c-1.2,0.5-2.1,1.7-1.7,3c0.3,1.2,1.8,2.2,3,1.7
		c4-1.4,7.9-3.1,11.7-4.8c3.7-1.7,7.6-3.3,11-5.7C220.8,18.6,220.2,17.3,219.2,17.5"/>
	<path class="st5" d="M212,25.6c-2.7,0.7-5.3,1.8-7.9,2.9c-1.2,0.5-2.5,1-3.7,1.6c-1.4,0.6-2.8,1.1-3.9,2.1
		c-0.6,0.5-0.7,1.6-0.3,2.2c0.4,0.8,1.3,1,2.1,0.9c1.4-0.2,2.7-1,3.9-1.7c1.2-0.6,2.3-1.2,3.5-1.9c2.4-1.3,4.8-2.6,7-4.2
		C213.7,26.8,213.2,25.3,212,25.6"/>
	<path class="st6" d="M200.5,46.2c2.7-1,5.2-2.4,7.6-3.8c1.9-1.1,0.1-4.2-1.7-3c-2.3,1.5-4.7,2.7-7,4.1
		C198,44.4,198.9,46.8,200.5,46.2"/>
	<path class="st5" d="M213.3,31.2c-1.2-0.3-2.6,0.4-3.7,0.8c-1.2,0.5-2.4,1-3.6,1.4c-1.2,0.5-2.4,0.9-3.6,1.4
		c-1.3,0.5-2.8,0.9-4,1.7c-2.2,1.4-0.8,4.6,1.7,4.1c1.4-0.3,2.7-1,4-1.6c1.2-0.6,2.4-1.2,3.6-1.9c1.2-0.6,2.3-1.3,3.4-2
		c1.1-0.7,2.5-1.4,2.9-2.7C214.3,32,213.9,31.3,213.3,31.2"/>
	<path class="st3" d="M193.7,0.7c-1.1-0.4-2.2,0.2-3.2,0.5c-1.2,0.4-2.3,0.9-3.5,1.4c-2.3,1-4.6,2-6.7,3.2C178.1,7,180,10,182.1,9
		c2.2-1.1,4.3-2.2,6.4-3.4c1-0.5,2.1-1.1,3.1-1.7c0.9-0.5,2.1-1.1,2.6-2.1C194.3,1.4,194.2,0.9,193.7,0.7"/>
	<path class="st3" d="M6.2,16.9c2.4-1.6,5-2.9,7.6-4.2c2.6-1.4,5.2-2.6,7.8-3.8c0.9-0.4,1.1-1.8,0.7-2.6c-0.5-0.9-1.7-1.1-2.6-0.7
		c-2.6,1.3-5.1,2.7-7.6,4.1c-2.5,1.5-4.8,3.2-7.2,4.8C3.4,15.5,4.8,17.8,6.2,16.9"/>
	<path class="st2" d="M11.2,17.1c4.1-0.9,8.1-2,12.1-3c4-1.1,8-2.1,12-3.2c1.1-0.3,1.7-1.7,1.3-2.8c-0.4-1.2-1.6-1.6-2.8-1.3
		c-7.9,2.2-15.9,4.7-23.4,8.1C9,15.4,9.7,17.4,11.2,17.1"/>
	<path class="st2" d="M30.6,12.3C25.4,14.9,20.2,17.5,15,20c-0.9,0.4-1.1,1.8-0.6,2.6c0.6,0.9,1.7,1,2.6,0.6
		c5.2-2.7,10.1-5.7,14.8-9.1C32.9,13.3,31.8,11.6,30.6,12.3"/>
	<path class="st4" d="M23.7,23.1c2.7-0.5,5.3-1.3,7.9-2c2.6-0.8,5.2-1.5,7.9-2.3c2.4-0.7,1-4.5-1.4-3.7c-2.5,0.8-5,1.7-7.6,2.5
		c-2.5,0.8-5.1,1.6-7.5,2.7C21.7,21,22,23.4,23.7,23.1"/>
	<path class="st4" d="M46.4,15.3c-3.2,1.6-6.2,3.8-9.1,5.8c-3,2.1-5.9,4.2-8.8,6.4c-0.9,0.7-1.4,1.9-0.7,3c0.6,0.9,2.1,1.4,3,0.7
		c3-2.2,5.9-4.6,8.8-7c2.7-2.4,5.7-4.8,7.9-7.6C48.1,15.9,47.3,14.9,46.4,15.3"/>
	<path class="st5" d="M29.9,34.4c-1.2-2.1-2.7-4.1-4.3-6.1c-0.7-0.9-1.5-1.9-2.2-2.8c-0.8-1-1.6-2.1-2.7-2.9c-0.6-0.4-1.5-0.2-2,0.3
		c-0.6,0.6-0.5,1.3-0.2,2c0.5,1.1,1.5,2.1,2.4,3c0.8,0.9,1.6,1.7,2.4,2.6c1.6,1.8,3.4,3.5,5.2,5C29.3,36.2,30.5,35.4,29.9,34.4"/>
	<path class="st6" d="M27.4,44.2c2.5,0.1,5-0.1,7.5-0.4c1.9-0.2,1.6-3.3-0.4-3c-2.4,0.4-4.8,0.5-7.2,0.9
		C26,41.8,25.9,44.1,27.4,44.2"/>
	<path class="st5" d="M38.7,26.3c-1.1,0.3-1.8,1.4-2.5,2.3c-0.7,0.9-1.4,1.8-2.1,2.7c-0.7,0.9-1.4,1.8-2.2,2.7c-0.8,1-1.7,1.9-2.3,3
		c-1.1,2.1,1.5,3.9,3.2,2.4c1-0.8,1.7-2,2.3-3c0.7-1,1.3-2,2-3.1c0.6-1,1.2-2,1.7-3c0.5-1,1.3-2.2,1-3.3
		C39.8,26.5,39.2,26.2,38.7,26.3"/>
	<path class="st3" d="M15.2,6.8c-0.5-0.8-1.6-1.1-2.5-1.5c-1-0.4-2.1-0.7-3.1-1C7.4,3.7,5.2,3.1,3.1,2.7C1,2.3,0.5,5.5,2.6,5.9
		c2.1,0.5,4.2,0.9,6.3,1.3c1,0.2,2,0.4,3.1,0.6c0.9,0.1,2,0.5,2.9,0C15.2,7.6,15.4,7.2,15.2,6.8"/>
	<g>
	</g>
	<g>
	</g>
	<g>
	</g>
	<g>
	</g>
	<g>
	</g>
	<g>
	</g>
</g>
</svg>
